<svg xmlns="http://www.w3.org/2000/svg" xmlns:xlink="http://www.w3.org/1999/xlink" version="1.1" class="marks" width="1045" height="663" viewBox="0 0 1045 663"><rect width="1045" height="663" fill="white"/><g fill="none" stroke-miterlimit="10" transform="translate(40,10)"><g class="mark-group role-frame root" role="graphics-object" aria-roledescription="group mark container"><g transform="translate(0,0)"><path class="background" aria-hidden="true" d="M0.5,0.5h1000v600h-1000Z" stroke="#ddd"/><g><g class="mark-group role-axis" aria-hidden="true"><g transform="translate(0.5,0.5)"><path class="background" aria-hidden="true" d="M0,0h0v0h0Z" pointer-events="none"/><g><g class="mark-rule role-axis-grid" pointer-events="none"><line transform="translate(0,600)" x2="1000" y2="0" stroke="#ddd" stroke-width="1" opacity="1"/><line transform="translate(0,540)" x2="1000" y2="0" stroke="#ddd" stroke-width="1" opacity="1"/><line transform="translate(0,480)" x2="1000" y2="0" stroke="#ddd" stroke-width="1" opacity="1"/><line transform="translate(0,420)" x2="1000" y2="0" stroke="#ddd" stroke-width="1" opacity="1"/><line transform="translate(0,360)" x2="1000" y2="0" stroke="#ddd" stroke-width="1" opacity="1"/><line transform="translate(0,300)" x2="1000" y2="0" stroke="#ddd" stroke-width="1" opacity="1"/><line transform="translate(0,240)" x2="1000" y2="0" stroke="#ddd" stroke-width="1" opacity="1"/><line transform="translate(0,180)" x2="1000" y2="0" stroke="#ddd" stroke-width="1" opacity="1"/><line transform="translate(0,120)" x2="1000" y2="0" stroke="#ddd" stroke-width="1" opacity="1"/><line transform="translate(0,60)" x2="1000" y2="0" stroke="#ddd" stroke-width="1" opacity="1"/><line transform="translate(0,0)" x2="1000" y2="0" stroke="#ddd" stroke-width="1" opacity="1"/></g></g><path class="foreground" aria-hidden="true" d="" pointer-events="none" display="none"/></g></g><g class="mark-group role-axis" role="graphics-symbol" aria-roledescription="axis" aria-label="X-axis titled 'Salle' for a discrete scale with 87 values: A001, A002, A102, A103, A105, ending with SPOR"><g transform="translate(0.5,600.5)"><path class="background" aria-hidden="true" d="M0,0h0v0h0Z" pointer-events="none"/><g><g class="mark-rule role-axis-tick" pointer-events="none"><line transform="translate(5,0)" x2="0" y2="5" stroke="#888" stroke-width="1" opacity="1"/><line transform="translate(17,0)" x2="0" y2="5" stroke="#888" stroke-width="1" opacity="1"/><line transform="translate(28,0)" x2="0" y2="5" stroke="#888" stroke-width="1" opacity="1"/><line transform="translate(40,0)" x2="0" y2="5" stroke="#888" stroke-width="1" opacity="1"/><line transform="translate(51,0)" x2="0" y2="5" stroke="#888" stroke-width="1" opacity="1"/><line transform="translate(63,0)" x2="0" y2="5" stroke="#888" stroke-width="1" opacity="1"/><line transform="translate(74,0)" x2="0" y2="5" stroke="#888" stroke-width="1" opacity="1"/><line transform="translate(86,0)" x2="0" y2="5" stroke="#888" stroke-width="1" opacity="1"/><line transform="translate(97,0)" x2="0" y2="5" stroke="#888" stroke-width="1" opacity="1"/><line transform="translate(109,0)" x2="0" y2="5" stroke="#888" stroke-width="1" opacity="1"/><line transform="translate(120,0)" x2="0" y2="5" stroke="#888" stroke-width="1" opacity="1"/><line transform="translate(132,0)" x2="0" y2="5" stroke="#888" stroke-width="1" opacity="1"/><line transform="translate(143,0)" x2="0" y2="5" stroke="#888" stroke-width="1" opacity="1"/><line transform="translate(155,0)" x2="0" y2="5" stroke="#888" stroke-width="1" opacity="1"/><line transform="translate(166,0)" x2="0" y2="5" stroke="#888" stroke-width="1" opacity="1"/><line transform="translate(178,0)" x2="0" y2="5" stroke="#888" stroke-width="1" opacity="1"/><line transform="translate(189,0)" x2="0" y2="5" stroke="#888" stroke-width="1" opacity="1"/><line transform="translate(201,0)" x2="0" y2="5" stroke="#888" stroke-width="1" opacity="1"/><line transform="translate(212,0)" x2="0" y2="5" stroke="#888" stroke-width="1" opacity="1"/><line transform="translate(224,0)" x2="0" y2="5" stroke="#888" stroke-width="1" opacity="1"/><line transform="translate(235,0)" x2="0" y2="5" stroke="#888" stroke-width="1" opacity="1"/><line transform="translate(247,0)" x2="0" y2="5" stroke="#888" stroke-width="1" opacity="1"/><line transform="translate(258,0)" x2="0" y2="5" stroke="#888" stroke-width="1" opacity="1"/><line transform="translate(270,0)" x2="0" y2="5" stroke="#888" stroke-width="1" opacity="1"/><line transform="translate(281,0)" x2="0" y2="5" stroke="#888" stroke-width="1" opacity="1"/><line transform="translate(293,0)" x2="0" y2="5" stroke="#888" stroke-width="1" opacity="1"/><line transform="translate(304,0)" x2="0" y2="5" stroke="#888" stroke-width="1" opacity="1"/><line transform="translate(316,0)" x2="0" y2="5" stroke="#888" stroke-width="1" opacity="1"/><line transform="translate(327,0)" x2="0" y2="5" stroke="#888" stroke-width="1" opacity="1"/><line transform="translate(339,0)" x2="0" y2="5" stroke="#888" stroke-width="1" opacity="1"/><line transform="translate(350,0)" x2="0" y2="5" stroke="#888" stroke-width="1" opacity="1"/><line transform="translate(362,0)" x2="0" y2="5" stroke="#888" stroke-width="1" opacity="1"/><line transform="translate(373,0)" x2="0" y2="5" stroke="#888" stroke-width="1" opacity="1"/><line transform="translate(385,0)" x2="0" y2="5" stroke="#888" stroke-width="1" opacity="1"/><line transform="translate(396,0)" x2="0" y2="5" stroke="#888" stroke-width="1" opacity="1"/><line transform="translate(408,0)" x2="0" y2="5" stroke="#888" stroke-width="1" opacity="1"/><line transform="translate(419,0)" x2="0" y2="5" stroke="#888" stroke-width="1" opacity="1"/><line transform="translate(431,0)" x2="0" y2="5" stroke="#888" stroke-width="1" opacity="1"/><line transform="translate(442,0)" x2="0" y2="5" stroke="#888" stroke-width="1" opacity="1"/><line transform="translate(454,0)" x2="0" y2="5" stroke="#888" stroke-width="1" opacity="1"/><line transform="translate(465,0)" x2="0" y2="5" stroke="#888" stroke-width="1" opacity="1"/><line transform="translate(477,0)" x2="0" y2="5" stroke="#888" stroke-width="1" opacity="1"/><line transform="translate(488,0)" x2="0" y2="5" stroke="#888" stroke-width="1" opacity="1"/><line transform="translate(499,0)" x2="0" y2="5" stroke="#888" stroke-width="1" opacity="1"/><line transform="translate(511,0)" x2="0" y2="5" stroke="#888" stroke-width="1" opacity="1"/><line transform="translate(522,0)" x2="0" y2="5" stroke="#888" stroke-width="1" opacity="1"/><line transform="translate(534,0)" x2="0" y2="5" stroke="#888" stroke-width="1" opacity="1"/><line transform="translate(545,0)" x2="0" y2="5" stroke="#888" stroke-width="1" opacity="1"/><line transform="translate(557,0)" x2="0" y2="5" stroke="#888" stroke-width="1" opacity="1"/><line transform="translate(568,0)" x2="0" y2="5" stroke="#888" stroke-width="1" opacity="1"/><line transform="translate(580,0)" x2="0" y2="5" stroke="#888" stroke-width="1" opacity="1"/><line transform="translate(591,0)" x2="0" y2="5" stroke="#888" stroke-width="1" opacity="1"/><line transform="translate(603,0)" x2="0" y2="5" stroke="#888" stroke-width="1" opacity="1"/><line transform="translate(614,0)" x2="0" y2="5" stroke="#888" stroke-width="1" opacity="1"/><line transform="translate(626,0)" x2="0" y2="5" stroke="#888" stroke-width="1" opacity="1"/><line transform="translate(637,0)" x2="0" y2="5" stroke="#888" stroke-width="1" opacity="1"/><line transform="translate(649,0)" x2="0" y2="5" stroke="#888" stroke-width="1" opacity="1"/><line transform="translate(660,0)" x2="0" y2="5" stroke="#888" stroke-width="1" opacity="1"/><line transform="translate(672,0)" x2="0" y2="5" stroke="#888" stroke-width="1" opacity="1"/><line transform="translate(683,0)" x2="0" y2="5" stroke="#888" stroke-width="1" opacity="1"/><line transform="translate(695,0)" x2="0" y2="5" stroke="#888" stroke-width="1" opacity="1"/><line transform="translate(706,0)" x2="0" y2="5" stroke="#888" stroke-width="1" opacity="1"/><line transform="translate(718,0)" x2="0" y2="5" stroke="#888" stroke-width="1" opacity="1"/><line transform="translate(729,0)" x2="0" y2="5" stroke="#888" stroke-width="1" opacity="1"/><line transform="translate(741,0)" x2="0" y2="5" stroke="#888" stroke-width="1" opacity="1"/><line transform="translate(752,0)" x2="0" y2="5" stroke="#888" stroke-width="1" opacity="1"/><line transform="translate(764,0)" x2="0" y2="5" stroke="#888" stroke-width="1" opacity="1"/><line transform="translate(775,0)" x2="0" y2="5" stroke="#888" stroke-width="1" opacity="1"/><line transform="translate(787,0)" x2="0" y2="5" stroke="#888" stroke-width="1" opacity="1"/><line transform="translate(798,0)" x2="0" y2="5" stroke="#888" stroke-width="1" opacity="1"/><line transform="translate(810,0)" x2="0" y2="5" stroke="#888" stroke-width="1" opacity="1"/><line transform="translate(821,0)" x2="0" y2="5" stroke="#888" stroke-width="1" opacity="1"/><line transform="translate(833,0)" x2="0" y2="5" stroke="#888" stroke-width="1" opacity="1"/><line transform="translate(844,0)" x2="0" y2="5" stroke="#888" stroke-width="1" opacity="1"/><line transform="translate(856,0)" x2="0" y2="5" stroke="#888" stroke-width="1" opacity="1"/><line transform="translate(867,0)" x2="0" y2="5" stroke="#888" stroke-width="1" opacity="1"/><line transform="translate(879,0)" x2="0" y2="5" stroke="#888" stroke-width="1" opacity="1"/><line transform="translate(890,0)" x2="0" y2="5" stroke="#888" stroke-width="1" opacity="1"/><line transform="translate(902,0)" x2="0" y2="5" stroke="#888" stroke-width="1" opacity="1"/><line transform="translate(913,0)" x2="0" y2="5" stroke="#888" stroke-width="1" opacity="1"/><line transform="translate(925,0)" x2="0" y2="5" stroke="#888" stroke-width="1" opacity="1"/><line transform="translate(936,0)" x2="0" y2="5" stroke="#888" stroke-width="1" opacity="1"/><line transform="translate(948,0)" x2="0" y2="5" stroke="#888" stroke-width="1" opacity="1"/><line transform="translate(959,0)" x2="0" y2="5" stroke="#888" stroke-width="1" opacity="1"/><line transform="translate(971,0)" x2="0" y2="5" stroke="#888" stroke-width="1" opacity="1"/><line transform="translate(982,0)" x2="0" y2="5" stroke="#888" stroke-width="1" opacity="1"/><line transform="translate(994,0)" x2="0" y2="5" stroke="#888" stroke-width="1" opacity="1"/></g><g class="mark-text role-axis-label" pointer-events="none"><text text-anchor="end" transform="translate(5.247126436781588,7) rotate(270) translate(0,3)" font-family="sans-serif" font-size="10px" fill="#000" opacity="1">A001</text><text text-anchor="end" transform="translate(16.741379310344804,7) rotate(270) translate(0,3)" font-family="sans-serif" font-size="10px" fill="#000" opacity="1">A002</text><text text-anchor="end" transform="translate(28.235632183908024,7) rotate(270) translate(0,3)" font-family="sans-serif" font-size="10px" fill="#000" opacity="1">A102</text><text text-anchor="end" transform="translate(39.729885057471236,7) rotate(270) translate(0,3)" font-family="sans-serif" font-size="10px" fill="#000" opacity="1">A103</text><text text-anchor="end" transform="translate(51.22413793103446,7) rotate(270) translate(0,3)" font-family="sans-serif" font-size="10px" fill="#000" opacity="1">A105</text><text text-anchor="end" transform="translate(62.718390804597675,7) rotate(270) translate(0,3)" font-family="sans-serif" font-size="10px" fill="#000" opacity="1">A108</text><text text-anchor="end" transform="translate(74.21264367816089,7) rotate(270) translate(0,3)" font-family="sans-serif" font-size="10px" fill="#000" opacity="1">A201</text><text text-anchor="end" transform="translate(85.70689655172411,7) rotate(270) translate(0,3)" font-family="sans-serif" font-size="10px" fill="#000" opacity="1">A203</text><text text-anchor="end" transform="translate(97.20114942528733,7) rotate(270) translate(0,3)" font-family="sans-serif" font-size="10px" fill="#000" opacity="1">A205</text><text text-anchor="end" transform="translate(108.69540229885054,7) rotate(270) translate(0,3)" font-family="sans-serif" font-size="10px" fill="#000" opacity="1">A206</text><text text-anchor="end" transform="translate(120.18965517241377,7) rotate(270) translate(0,3)" font-family="sans-serif" font-size="10px" fill="#000" opacity="1">A207</text><text text-anchor="end" transform="translate(131.68390804597698,7) rotate(270) translate(0,3)" font-family="sans-serif" font-size="10px" fill="#000" opacity="1">A208</text><text text-anchor="end" transform="translate(143.1781609195402,7) rotate(270) translate(0,3)" font-family="sans-serif" font-size="10px" fill="#000" opacity="1">A210</text><text text-anchor="end" transform="translate(154.67241379310343,7) rotate(270) translate(0,3)" font-family="sans-serif" font-size="10px" fill="#000" opacity="1">A212</text><text text-anchor="end" transform="translate(166.16666666666666,7) rotate(270) translate(0,3)" font-family="sans-serif" font-size="10px" fill="#000" opacity="1">B001</text><text text-anchor="end" transform="translate(177.66091954022986,7) rotate(270) translate(0,3)" font-family="sans-serif" font-size="10px" fill="#000" opacity="1">B005</text><text text-anchor="end" transform="translate(189.15517241379308,7) rotate(270) translate(0,3)" font-family="sans-serif" font-size="10px" fill="#000" opacity="1">B007</text><text text-anchor="end" transform="translate(200.6494252873563,7) rotate(270) translate(0,3)" font-family="sans-serif" font-size="10px" fill="#000" opacity="1">B101</text><text text-anchor="end" transform="translate(212.1436781609195,7) rotate(270) translate(0,3)" font-family="sans-serif" font-size="10px" fill="#000" opacity="1">B103</text><text text-anchor="end" transform="translate(223.63793103448273,7) rotate(270) translate(0,3)" font-family="sans-serif" font-size="10px" fill="#000" opacity="1">B105</text><text text-anchor="end" transform="translate(235.13218390804596,7) rotate(270) translate(0,3)" font-family="sans-serif" font-size="10px" fill="#000" opacity="1">B106</text><text text-anchor="end" transform="translate(246.62643678160916,7) rotate(270) translate(0,3)" font-family="sans-serif" font-size="10px" fill="#000" opacity="1">B123</text><text text-anchor="end" transform="translate(258.1206896551724,7) rotate(270) translate(0,3)" font-family="sans-serif" font-size="10px" fill="#000" opacity="1">B1234</text><text text-anchor="end" transform="translate(269.6149425287356,7) rotate(270) translate(0,3)" font-family="sans-serif" font-size="10px" fill="#000" opacity="1">B201</text><text text-anchor="end" transform="translate(281.1091954022988,7) rotate(270) translate(0,3)" font-family="sans-serif" font-size="10px" fill="#000" opacity="1">B202</text><text text-anchor="end" transform="translate(292.60344827586204,7) rotate(270) translate(0,3)" font-family="sans-serif" font-size="10px" fill="#000" opacity="1">B203</text><text text-anchor="end" transform="translate(304.09770114942523,7) rotate(270) translate(0,3)" font-family="sans-serif" font-size="10px" fill="#000" opacity="1">B204</text><text text-anchor="end" transform="translate(315.59195402298843,7) rotate(270) translate(0,3)" font-family="sans-serif" font-size="10px" fill="#000" opacity="1">B205</text><text text-anchor="end" transform="translate(327.0862068965517,7) rotate(270) translate(0,3)" font-family="sans-serif" font-size="10px" fill="#000" opacity="1">B207</text><text text-anchor="end" transform="translate(338.5804597701149,7) rotate(270) translate(0,3)" font-family="sans-serif" font-size="10px" fill="#000" opacity="1">B208</text><text text-anchor="end" transform="translate(350.0747126436781,7) rotate(270) translate(0,3)" font-family="sans-serif" font-size="10px" fill="#000" opacity="1">B209</text><text text-anchor="end" transform="translate(361.56896551724134,7) rotate(270) translate(0,3)" font-family="sans-serif" font-size="10px" fill="#000" opacity="1">B210</text><text text-anchor="end" transform="translate(373.06321839080454,7) rotate(270) translate(0,3)" font-family="sans-serif" font-size="10px" fill="#000" opacity="1">C001</text><text text-anchor="end" transform="translate(384.55747126436773,7) rotate(270) translate(0,3)" font-family="sans-serif" font-size="10px" fill="#000" opacity="1">C002</text><text text-anchor="end" transform="translate(396.051724137931,7) rotate(270) translate(0,3)" font-family="sans-serif" font-size="10px" fill="#000" opacity="1">C101</text><text text-anchor="end" transform="translate(407.5459770114942,7) rotate(270) translate(0,3)" font-family="sans-serif" font-size="10px" fill="#000" opacity="1">C102</text><text text-anchor="end" transform="translate(419.0402298850574,7) rotate(270) translate(0,3)" font-family="sans-serif" font-size="10px" fill="#000" opacity="1">C103</text><text text-anchor="end" transform="translate(430.53448275862064,7) rotate(270) translate(0,3)" font-family="sans-serif" font-size="10px" fill="#000" opacity="1">C104</text><text text-anchor="end" transform="translate(442.02873563218384,7) rotate(270) translate(0,3)" font-family="sans-serif" font-size="10px" fill="#000" opacity="1">C105</text><text text-anchor="end" transform="translate(453.52298850574704,7) rotate(270) translate(0,3)" font-family="sans-serif" font-size="10px" fill="#000" opacity="1">C201</text><text text-anchor="end" transform="translate(465.0172413793103,7) rotate(270) translate(0,3)" font-family="sans-serif" font-size="10px" fill="#000" opacity="1">C202</text><text text-anchor="end" transform="translate(476.5114942528735,7) rotate(270) translate(0,3)" font-family="sans-serif" font-size="10px" fill="#000" opacity="1">C203</text><text text-anchor="end" transform="translate(488.0057471264367,7) rotate(270) translate(0,3)" font-family="sans-serif" font-size="10px" fill="#000" opacity="1">C204</text><text text-anchor="end" transform="translate(499.49999999999994,7) rotate(270) translate(0,3)" font-family="sans-serif" font-size="10px" fill="#000" opacity="1">C205</text><text text-anchor="end" transform="translate(510.99425287356314,7) rotate(270) translate(0,3)" font-family="sans-serif" font-size="10px" fill="#000" opacity="1">C206</text><text text-anchor="end" transform="translate(522.4885057471264,7) rotate(270) translate(0,3)" font-family="sans-serif" font-size="10px" fill="#000" opacity="1">C207</text><text text-anchor="end" transform="translate(533.9827586206897,7) rotate(270) translate(0,3)" font-family="sans-serif" font-size="10px" fill="#000" opacity="1">C208</text><text text-anchor="end" transform="translate(545.4770114942529,7) rotate(270) translate(0,3)" font-family="sans-serif" font-size="10px" fill="#000" opacity="1">C210</text><text text-anchor="end" transform="translate(556.971264367816,7) rotate(270) translate(0,3)" font-family="sans-serif" font-size="10px" fill="#000" opacity="1">D002</text><text text-anchor="end" transform="translate(568.4655172413793,7) rotate(270) translate(0,3)" font-family="sans-serif" font-size="10px" fill="#000" opacity="1">D101</text><text text-anchor="end" transform="translate(579.9597701149426,7) rotate(270) translate(0,3)" font-family="sans-serif" font-size="10px" fill="#000" opacity="1">D102</text><text text-anchor="end" transform="translate(591.4540229885057,7) rotate(270) translate(0,3)" font-family="sans-serif" font-size="10px" fill="#000" opacity="1">D105</text><text text-anchor="end" transform="translate(602.948275862069,7) rotate(270) translate(0,3)" font-family="sans-serif" font-size="10px" fill="#000" opacity="1">D106</text><text text-anchor="end" transform="translate(614.4425287356322,7) rotate(270) translate(0,3)" font-family="sans-serif" font-size="10px" fill="#000" opacity="1">D108</text><text text-anchor="end" transform="translate(625.9367816091954,7) rotate(270) translate(0,3)" font-family="sans-serif" font-size="10px" fill="#000" opacity="1">D201</text><text text-anchor="end" transform="translate(637.4310344827586,7) rotate(270) translate(0,3)" font-family="sans-serif" font-size="10px" fill="#000" opacity="1">D202</text><text text-anchor="end" transform="translate(648.9252873563219,7) rotate(270) translate(0,3)" font-family="sans-serif" font-size="10px" fill="#000" opacity="1">D206</text><text text-anchor="end" transform="translate(660.419540229885,7) rotate(270) translate(0,3)" font-family="sans-serif" font-size="10px" fill="#000" opacity="1">EXT1</text><text text-anchor="end" transform="translate(671.9137931034483,7) rotate(270) translate(0,3)" font-family="sans-serif" font-size="10px" fill="#000" opacity="1">G002</text><text text-anchor="end" transform="translate(683.4080459770115,7) rotate(270) translate(0,3)" font-family="sans-serif" font-size="10px" fill="#000" opacity="1">IUT1</text><text text-anchor="end" transform="translate(694.9022988505747,7) rotate(270) translate(0,3)" font-family="sans-serif" font-size="10px" fill="#000" opacity="1">J002</text><text text-anchor="end" transform="translate(706.3965517241379,7) rotate(270) translate(0,3)" font-family="sans-serif" font-size="10px" fill="#000" opacity="1">J004</text><text text-anchor="end" transform="translate(717.8908045977012,7) rotate(270) translate(0,3)" font-family="sans-serif" font-size="10px" fill="#000" opacity="1">J101</text><text text-anchor="end" transform="translate(729.3850574712643,7) rotate(270) translate(0,3)" font-family="sans-serif" font-size="10px" fill="#000" opacity="1">J102</text><text text-anchor="end" transform="translate(740.8793103448276,7) rotate(270) translate(0,3)" font-family="sans-serif" font-size="10px" fill="#000" opacity="1">J105</text><text text-anchor="end" transform="translate(752.3735632183908,7) rotate(270) translate(0,3)" font-family="sans-serif" font-size="10px" fill="#000" opacity="1">M102</text><text text-anchor="end" transform="translate(763.867816091954,7) rotate(270) translate(0,3)" font-family="sans-serif" font-size="10px" fill="#000" opacity="1">M204</text><text text-anchor="end" transform="translate(775.3620689655172,7) rotate(270) translate(0,3)" font-family="sans-serif" font-size="10px" fill="#000" opacity="1">M207</text><text text-anchor="end" transform="translate(786.8563218390805,7) rotate(270) translate(0,3)" font-family="sans-serif" font-size="10px" fill="#000" opacity="1">M208</text><text text-anchor="end" transform="translate(798.3505747126436,7) rotate(270) translate(0,3)" font-family="sans-serif" font-size="10px" fill="#000" opacity="1">N101</text><text text-anchor="end" transform="translate(809.8448275862069,7) rotate(270) translate(0,3)" font-family="sans-serif" font-size="10px" fill="#000" opacity="1">P101</text><text text-anchor="end" transform="translate(821.3390804597701,7) rotate(270) translate(0,3)" font-family="sans-serif" font-size="10px" fill="#000" opacity="1">P102</text><text text-anchor="end" transform="translate(832.8333333333333,7) rotate(270) translate(0,3)" font-family="sans-serif" font-size="10px" fill="#000" opacity="1">P103</text><text text-anchor="end" transform="translate(844.3275862068965,7) rotate(270) translate(0,3)" font-family="sans-serif" font-size="10px" fill="#000" opacity="1">P104</text><text text-anchor="end" transform="translate(855.8218390804598,7) rotate(270) translate(0,3)" font-family="sans-serif" font-size="10px" fill="#000" opacity="1">P201</text><text text-anchor="end" transform="translate(867.3160919540229,7) rotate(270) translate(0,3)" font-family="sans-serif" font-size="10px" fill="#000" opacity="1">P202</text><text text-anchor="end" transform="translate(878.8103448275862,7) rotate(270) translate(0,3)" font-family="sans-serif" font-size="10px" fill="#000" opacity="1">P203</text><text text-anchor="end" transform="translate(890.3045977011494,7) rotate(270) translate(0,3)" font-family="sans-serif" font-size="10px" fill="#000" opacity="1">P204</text><text text-anchor="end" transform="translate(901.7988505747126,7) rotate(270) translate(0,3)" font-family="sans-serif" font-size="10px" fill="#000" opacity="1">S101</text><text text-anchor="end" transform="translate(913.2931034482758,7) rotate(270) translate(0,3)" font-family="sans-serif" font-size="10px" fill="#000" opacity="1">S102</text><text text-anchor="end" transform="translate(924.7873563218391,7) rotate(270) translate(0,3)" font-family="sans-serif" font-size="10px" fill="#000" opacity="1">S103</text><text text-anchor="end" transform="translate(936.2816091954022,7) rotate(270) translate(0,3)" font-family="sans-serif" font-size="10px" fill="#000" opacity="1">S104</text><text text-anchor="end" transform="translate(947.7758620689655,7) rotate(270) translate(0,3)" font-family="sans-serif" font-size="10px" fill="#000" opacity="1">S201</text><text text-anchor="end" transform="translate(959.2701149425287,7) rotate(270) translate(0,3)" font-family="sans-serif" font-size="10px" fill="#000" opacity="1">S202</text><text text-anchor="end" transform="translate(970.7643678160919,7) rotate(270) translate(0,3)" font-family="sans-serif" font-size="10px" fill="#000" opacity="1">S203</text><text text-anchor="end" transform="translate(982.2586206896551,7) rotate(270) translate(0,3)" font-family="sans-serif" font-size="10px" fill="#000" opacity="1">S204</text><text text-anchor="end" transform="translate(993.7528735632184,7) rotate(270) translate(0,3)" font-family="sans-serif" font-size="10px" fill="#000" opacity="1">SPOR</text></g><g class="mark-rule role-axis-domain" pointer-events="none"><line transform="translate(0,0)" x2="1000" y2="0" stroke="#888" stroke-width="1" opacity="1"/></g><g class="mark-text role-axis-title" pointer-events="none"><text text-anchor="middle" transform="translate(500,46)" font-family="sans-serif" font-size="11px" font-weight="bold" fill="#000" opacity="1">Salle</text></g></g><path class="foreground" aria-hidden="true" d="" pointer-events="none" display="none"/></g></g><g class="mark-group role-axis" role="graphics-symbol" aria-roledescription="axis" aria-label="Y-axis titled 'Taux d'occupation (%)' for a linear scale with values from 0 to 5"><g transform="translate(0.5,0.5)"><path class="background" aria-hidden="true" d="M0,0h0v0h0Z" pointer-events="none"/><g><g class="mark-rule role-axis-tick" pointer-events="none"><line transform="translate(0,600)" x2="-5" y2="0" stroke="#888" stroke-width="1" opacity="1"/><line transform="translate(0,540)" x2="-5" y2="0" stroke="#888" stroke-width="1" opacity="1"/><line transform="translate(0,480)" x2="-5" y2="0" stroke="#888" stroke-width="1" opacity="1"/><line transform="translate(0,420)" x2="-5" y2="0" stroke="#888" stroke-width="1" opacity="1"/><line transform="translate(0,360)" x2="-5" y2="0" stroke="#888" stroke-width="1" opacity="1"/><line transform="translate(0,300)" x2="-5" y2="0" stroke="#888" stroke-width="1" opacity="1"/><line transform="translate(0,240)" x2="-5" y2="0" stroke="#888" stroke-width="1" opacity="1"/><line transform="translate(0,180)" x2="-5" y2="0" stroke="#888" stroke-width="1" opacity="1"/><line transform="translate(0,120)" x2="-5" y2="0" stroke="#888" stroke-width="1" opacity="1"/><line transform="translate(0,60)" x2="-5" y2="0" stroke="#888" stroke-width="1" opacity="1"/><line transform="translate(0,0)" x2="-5" y2="0" stroke="#888" stroke-width="1" opacity="1"/></g><g class="mark-text role-axis-label" pointer-events="none"><text text-anchor="end" transform="translate(-7,603)" font-family="sans-serif" font-size="10px" fill="#000" opacity="1">0.0</text><text text-anchor="end" transform="translate(-7,543)" font-family="sans-serif" font-size="10px" fill="#000" opacity="1">0.5</text><text text-anchor="end" transform="translate(-7,483)" font-family="sans-serif" font-size="10px" fill="#000" opacity="1">1.0</text><text text-anchor="end" transform="translate(-7,423)" font-family="sans-serif" font-size="10px" fill="#000" opacity="1">1.5</text><text text-anchor="end" transform="translate(-7,363)" font-family="sans-serif" font-size="10px" fill="#000" opacity="1">2.0</text><text text-anchor="end" transform="translate(-7,303)" font-family="sans-serif" font-size="10px" fill="#000" opacity="1">2.5</text><text text-anchor="end" transform="translate(-7,243)" font-family="sans-serif" font-size="10px" fill="#000" opacity="1">3.0</text><text text-anchor="end" transform="translate(-7,183.00000000000003)" font-family="sans-serif" font-size="10px" fill="#000" opacity="1">3.5</text><text text-anchor="end" transform="translate(-7,122.99999999999997)" font-family="sans-serif" font-size="10px" fill="#000" opacity="1">4.0</text><text text-anchor="end" transform="translate(-7,62.999999999999986)" font-family="sans-serif" font-size="10px" fill="#000" opacity="1">4.5</text><text text-anchor="end" transform="translate(-7,3)" font-family="sans-serif" font-size="10px" fill="#000" opacity="1">5.0</text></g><g class="mark-rule role-axis-domain" pointer-events="none"><line transform="translate(0,600)" x2="0" y2="-600" stroke="#888" stroke-width="1" opacity="1"/></g><g class="mark-text role-axis-title" pointer-events="none"><text text-anchor="middle" transform="translate(-24,300) rotate(-90) translate(0,-2)" font-family="sans-serif" font-size="11px" font-weight="bold" fill="#000" opacity="1">Taux d'occupation (%)</text></g></g><path class="foreground" aria-hidden="true" d="" pointer-events="none" display="none"/></g></g><g class="mark-rect role-mark marks" role="graphics-object" aria-roledescription="rect mark container"><path aria-label="Salle: B103; TauxOccupation: 2.14998720246" role="graphics-symbol" aria-roledescription="bar" d="M207.47126436781605,342.00153570514465h10.344827586206897v257.99846429485535h-10.344827586206897Z" fill="#4c78a8"/><path aria-label="Salle: P101; TauxOccupation: 2.04760685948" role="graphics-symbol" aria-roledescription="bar" d="M805.1724137931034,354.28717686204254h10.344827586206897v245.71282313795746h-10.344827586206897Z" fill="#4c78a8"/><path aria-label="Salle: S104; TauxOccupation: 1.68927565907" role="graphics-symbol" aria-roledescription="bar" d="M931.6091954022987,397.286920911185h10.344827586206897v202.713079088815h-10.344827586206897Z" fill="#4c78a8"/><path aria-label="Salle: A001; TauxOccupation: 1.68927565907" role="graphics-symbol" aria-roledescription="bar" d="M0.57471264367814,397.286920911185h10.344827586206897v202.713079088815h-10.344827586206897Z" fill="#4c78a8"/><path aria-label="Salle: S203; TauxOccupation: 2.04760685948" role="graphics-symbol" aria-roledescription="bar" d="M966.0919540229884,354.28717686204254h10.344827586206897v245.71282313795746h-10.344827586206897Z" fill="#4c78a8"/><path aria-label="Salle: A207; TauxOccupation: 0.511901714871" role="graphics-symbol" aria-roledescription="bar" d="M115.51724137931032,538.5717942155106h10.344827586206897v61.428205784489364h-10.344827586206897Z" fill="#4c78a8"/><path aria-label="Salle: S103; TauxOccupation: 2.02201177374" role="graphics-symbol" aria-roledescription="bar" d="M920.1149425287356,357.358587151267h10.344827586206897v242.641412848733h-10.344827586206897Z" fill="#4c78a8"/><path aria-label="Salle: P103; TauxOccupation: 1.63808548759" role="graphics-symbol" aria-roledescription="bar" d="M828.1609195402298,403.42974148963395h10.344827586206897v196.57025851036605h-10.344827586206897Z" fill="#4c78a8"/><path aria-label="Salle: B207; TauxOccupation: 0.87023291528" role="graphics-symbol" aria-roledescription="bar" d="M322.41379310344826,495.57205016636806h10.344827586206897v104.42794983363194h-10.344827586206897Z" fill="#4c78a8"/><path aria-label="Salle: A105; TauxOccupation: 1.30534937292" role="graphics-symbol" aria-roledescription="bar" d="M46.55172413793101,443.3580752495521h10.344827586206897v156.6419247504479h-10.344827586206897Z" fill="#4c78a8"/><path aria-label="Salle: S204; TauxOccupation: 1.84284617353" role="graphics-symbol" aria-roledescription="bar" d="M977.5862068965516,378.8584591758382h10.344827586206897v221.14154082416178h-10.344827586206897Z" fill="#4c78a8"/><path aria-label="Salle: A203; TauxOccupation: 0.665472229332" role="graphics-symbol" aria-roledescription="bar" d="M81.03448275862067,520.1433324801638h10.344827586206897v79.85666751983615h-10.344827586206897Z" fill="#4c78a8"/><path aria-label="Salle: B210; TauxOccupation: 0.614282057845" role="graphics-symbol" aria-roledescription="bar" d="M356.8965517241379,526.2861530586127h10.344827586206897v73.71384694138726h-10.344827586206897Z" fill="#4c78a8"/><path aria-label="Salle: B001; TauxOccupation: 0.614282057845" role="graphics-symbol" aria-roledescription="bar" d="M161.4942528735632,526.2861530586127h10.344827586206897v73.71384694138726h-10.344827586206897Z" fill="#4c78a8"/><path aria-label="Salle: C002; TauxOccupation: 1.7660609163" role="graphics-symbol" aria-roledescription="bar" d="M379.8850574712643,388.0726900435116h10.344827586206897v211.9273099564884h-10.344827586206897Z" fill="#4c78a8"/><path aria-label="Salle: B201; TauxOccupation: 1.5868953161" role="graphics-symbol" aria-roledescription="bar" d="M264.94252873563215,409.57256206808296h10.344827586206897v190.42743793191704h-10.344827586206897Z" fill="#4c78a8"/><path aria-label="Salle: B007; TauxOccupation: 0.767852572306" role="graphics-symbol" aria-roledescription="bar" d="M184.48275862068962,507.85769132326595h10.344827586206897v92.14230867673405h-10.344827586206897Z" fill="#4c78a8"/><path aria-label="Salle: B204; TauxOccupation: 0.972613258254" role="graphics-symbol" aria-roledescription="bar" d="M299.4252873563218,483.2864090094702h10.344827586206897v116.71359099052978h-10.344827586206897Z" fill="#4c78a8"/><path aria-label="Salle: B101; TauxOccupation: 2.25236754543" role="graphics-symbol" aria-roledescription="bar" d="M195.97701149425285,329.71589454824675h10.344827586206897v270.28410545175325h-10.344827586206897Z" fill="#4c78a8"/><path aria-label="Salle: C202; TauxOccupation: 0.307141028922" role="graphics-symbol" aria-roledescription="bar" d="M460.34482758620686,563.1430765293064h10.344827586206897v36.85692347069357h-10.344827586206897Z" fill="#4c78a8"/><path aria-label="Salle: C204; TauxOccupation: 1.33094445866" role="graphics-symbol" aria-roledescription="bar" d="M483.33333333333326,440.28666496032764h10.344827586206897v159.71333503967236h-10.344827586206897Z" fill="#4c78a8"/><path aria-label="Salle: C105; TauxOccupation: 1.33094445866" role="graphics-symbol" aria-roledescription="bar" d="M437.3563218390804,440.28666496032764h10.344827586206897v159.71333503967236h-10.344827586206897Z" fill="#4c78a8"/><path aria-label="Salle: A205; TauxOccupation: 1.12618377272" role="graphics-symbol" aria-roledescription="bar" d="M92.52873563218388,464.8579472741234h10.344827586206897v135.14205272587662h-10.344827586206897Z" fill="#4c78a8"/><path aria-label="Salle: EXT1; TauxOccupation: 4.78628103404" role="graphics-symbol" aria-roledescription="bar" d="M655.7471264367815,25.646275915024376h10.344827586206897v574.3537240849756h-10.344827586206897Z" fill="#4c78a8"/><path aria-label="Salle: P104; TauxOccupation: 1.89403634502" role="graphics-symbol" aria-roledescription="bar" d="M839.655172413793,372.71563859738933h10.344827586206897v227.28436140261067h-10.344827586206897Z" fill="#4c78a8"/><path aria-label="Salle: A208; TauxOccupation: 0.921423086767" role="graphics-symbol" aria-roledescription="bar" d="M127.01149425287353,489.4292295879191h10.344827586206897v110.57077041208089h-10.344827586206897Z" fill="#4c78a8"/><path aria-label="Salle: A206; TauxOccupation: 1.1773739442" role="graphics-symbol" aria-roledescription="bar" d="M104.0229885057471,458.7151266956744h10.344827586206897v141.28487330432557h-10.344827586206897Z" fill="#4c78a8"/><path aria-label="Salle: C104; TauxOccupation: 1.02380342974" role="graphics-symbol" aria-roledescription="bar" d="M425.8620689655172,477.14358843102127h10.344827586206897v122.85641156897873h-10.344827586206897Z" fill="#4c78a8"/><path aria-label="Salle: P202; TauxOccupation: 1.94522651651" role="graphics-symbol" aria-roledescription="bar" d="M862.6436781609194,366.5728180189404h10.344827586206897v233.42718198105962h-10.344827586206897Z" fill="#4c78a8"/><path aria-label="Salle: M204; TauxOccupation: 0.307141028922" role="graphics-symbol" aria-roledescription="bar" d="M759.1954022988505,563.1430765293064h10.344827586206897v36.85692347069357h-10.344827586206897Z" fill="#4c78a8"/><path aria-label="Salle: B105; TauxOccupation: 1.15177885846" role="graphics-symbol" aria-roledescription="bar" d="M218.96551724137927,461.7865369848989h10.344827586206897v138.21346301510113h-10.344827586206897Z" fill="#4c78a8"/><path aria-label="Salle: S102; TauxOccupation: 1.74046583056" role="graphics-symbol" aria-roledescription="bar" d="M908.6206896551723,391.1441003327361h10.344827586206897v208.85589966726388h-10.344827586206897Z" fill="#4c78a8"/><path aria-label="Salle: D106; TauxOccupation: 0.767852572306" role="graphics-symbol" aria-roledescription="bar" d="M598.2758620689655,507.85769132326595h10.344827586206897v92.14230867673405h-10.344827586206897Z" fill="#4c78a8"/><path aria-label="Salle: J004; TauxOccupation: 0.614282057845" role="graphics-symbol" aria-roledescription="bar" d="M701.7241379310344,526.2861530586127h10.344827586206897v73.71384694138726h-10.344827586206897Z" fill="#4c78a8"/><path aria-label="Salle: C102; TauxOccupation: 0.895828001024" role="graphics-symbol" aria-roledescription="bar" d="M402.87356321839076,492.5006398771436h10.344827586206897v107.49936012285639h-10.344827586206897Z" fill="#4c78a8"/><path aria-label="Salle: S202; TauxOccupation: 1.20296902995" role="graphics-symbol" aria-roledescription="bar" d="M954.5977011494252,455.64371640645h10.344827586206897v144.35628359355002h-10.344827586206897Z" fill="#4c78a8"/><path aria-label="Salle: B208; TauxOccupation: 0.947018172511" role="graphics-symbol" aria-roledescription="bar" d="M333.90804597701145,486.35781929869466h10.344827586206897v113.64218070130534h-10.344827586206897Z" fill="#4c78a8"/><path aria-label="Salle: P102; TauxOccupation: 1.66368057333" role="graphics-symbol" aria-roledescription="bar" d="M816.6666666666666,400.3583312004095h10.344827586206897v199.6416687995905h-10.344827586206897Z" fill="#4c78a8"/><path aria-label="Salle: S101; TauxOccupation: 2.1755822882" role="graphics-symbol" aria-roledescription="bar" d="M897.1264367816091,338.93012541592014h10.344827586206897v261.06987458407986h-10.344827586206897Z" fill="#4c78a8"/><path aria-label="Salle: S201; TauxOccupation: 2.07320194523" role="graphics-symbol" aria-roledescription="bar" d="M943.103448275862,351.215766572818h10.344827586206897v248.78423342718202h-10.344827586206897Z" fill="#4c78a8"/><path aria-label="Salle: P201; TauxOccupation: 1.68927565907" role="graphics-symbol" aria-roledescription="bar" d="M851.1494252873563,397.286920911185h10.344827586206897v202.713079088815h-10.344827586206897Z" fill="#4c78a8"/><path aria-label="Salle: A103; TauxOccupation: 0.998208343998" role="graphics-symbol" aria-roledescription="bar" d="M35.05747126436779,480.21499872024566h10.344827586206897v119.78500127975434h-10.344827586206897Z" fill="#4c78a8"/><path aria-label="Salle: B203; TauxOccupation: 1.27975428718" role="graphics-symbol" aria-roledescription="bar" d="M287.9310344827586,446.4294855387766h10.344827586206897v153.5705144612234h-10.344827586206897Z" fill="#4c78a8"/><path aria-label="Salle: B205; TauxOccupation: 1.1773739442" role="graphics-symbol" aria-roledescription="bar" d="M310.919540229885,458.7151266956744h10.344827586206897v141.28487330432557h-10.344827586206897Z" fill="#4c78a8"/><path aria-label="Salle: N101; TauxOccupation: 1.22856411569" role="graphics-symbol" aria-roledescription="bar" d="M793.6781609195401,452.5723061172255h10.344827586206897v147.42769388277452h-10.344827586206897Z" fill="#4c78a8"/><path aria-label="Salle: M207; TauxOccupation: 1.02380342974" role="graphics-symbol" aria-roledescription="bar" d="M770.6896551724137,477.14358843102127h10.344827586206897v122.85641156897873h-10.344827586206897Z" fill="#4c78a8"/><path aria-label="Salle: C001; TauxOccupation: 0.895828001024" role="graphics-symbol" aria-roledescription="bar" d="M368.3908045977011,492.5006398771436h10.344827586206897v107.49936012285639h-10.344827586206897Z" fill="#4c78a8"/><path aria-label="Salle: M102; TauxOccupation: 0.716662400819" role="graphics-symbol" aria-roledescription="bar" d="M747.7011494252873,514.0005119017148h10.344827586206897v85.99948809828516h-10.344827586206897Z" fill="#4c78a8"/><path aria-label="Salle: A002; TauxOccupation: 0.716662400819" role="graphics-symbol" aria-roledescription="bar" d="M12.068965517241358,514.0005119017148h10.344827586206897v85.99948809828516h-10.344827586206897Z" fill="#4c78a8"/><path aria-label="Salle: P203; TauxOccupation: 2.61069874584" role="graphics-symbol" aria-roledescription="bar" d="M874.1379310344827,286.7161504991042h10.344827586206897v313.2838495008958h-10.344827586206897Z" fill="#4c78a8"/><path aria-label="Salle: B106; TauxOccupation: 0.767852572306" role="graphics-symbol" aria-roledescription="bar" d="M230.4597701149425,507.85769132326595h10.344827586206897v92.14230867673405h-10.344827586206897Z" fill="#4c78a8"/><path aria-label="Salle: B202; TauxOccupation: 1.89403634502" role="graphics-symbol" aria-roledescription="bar" d="M276.43678160919535,372.71563859738933h10.344827586206897v227.28436140261067h-10.344827586206897Z" fill="#4c78a8"/><path aria-label="Salle: C103; TauxOccupation: 1.22856411569" role="graphics-symbol" aria-roledescription="bar" d="M414.36781609195396,452.5723061172255h10.344827586206897v147.42769388277452h-10.344827586206897Z" fill="#4c78a8"/><path aria-label="Salle: C201; TauxOccupation: 0.819042743793" role="graphics-symbol" aria-roledescription="bar" d="M448.8505747126436,501.71487074481695h10.344827586206897v98.28512925518305h-10.344827586206897Z" fill="#4c78a8"/><path aria-label="Salle: C203; TauxOccupation: 1.33094445866" role="graphics-symbol" aria-roledescription="bar" d="M471.83908045977006,440.28666496032764h10.344827586206897v159.71333503967236h-10.344827586206897Z" fill="#4c78a8"/><path aria-label="Salle: C207; TauxOccupation: 1.33094445866" role="graphics-symbol" aria-roledescription="bar" d="M517.8160919540229,440.28666496032764h10.344827586206897v159.71333503967236h-10.344827586206897Z" fill="#4c78a8"/><path aria-label="Salle: C101; TauxOccupation: 0.102380342974" role="graphics-symbol" aria-roledescription="bar" d="M391.37931034482756,587.7143588431021h10.344827586206897v12.285641156897896h-10.344827586206897Z" fill="#4c78a8"/><path aria-label="Salle: C205; TauxOccupation: 0.921423086767" role="graphics-symbol" aria-roledescription="bar" d="M494.8275862068965,489.4292295879191h10.344827586206897v110.57077041208089h-10.344827586206897Z" fill="#4c78a8"/><path aria-label="Salle: C210; TauxOccupation: 1.02380342974" role="graphics-symbol" aria-roledescription="bar" d="M540.8045977011494,477.14358843102127h10.344827586206897v122.85641156897873h-10.344827586206897Z" fill="#4c78a8"/><path aria-label="Salle: C206; TauxOccupation: 0.716662400819" role="graphics-symbol" aria-roledescription="bar" d="M506.3218390804597,514.0005119017148h10.344827586206897v85.99948809828516h-10.344827586206897Z" fill="#4c78a8"/><path aria-label="Salle: C208; TauxOccupation: 0.921423086767" role="graphics-symbol" aria-roledescription="bar" d="M529.3103448275862,489.4292295879191h10.344827586206897v110.57077041208089h-10.344827586206897Z" fill="#4c78a8"/><path aria-label="Salle: P204; TauxOccupation: 1.996416688" role="graphics-symbol" aria-roledescription="bar" d="M885.6321839080459,360.4299974404914h10.344827586206897v239.57000255950862h-10.344827586206897Z" fill="#4c78a8"/><path aria-label="Salle: D206; TauxOccupation: 0.87023291528" role="graphics-symbol" aria-roledescription="bar" d="M644.2528735632184,495.57205016636806h10.344827586206897v104.42794983363194h-10.344827586206897Z" fill="#4c78a8"/><path aria-label="Salle: D202; TauxOccupation: 1.996416688" role="graphics-symbol" aria-roledescription="bar" d="M632.7586206896551,360.4299974404914h10.344827586206897v239.57000255950862h-10.344827586206897Z" fill="#4c78a8"/><path aria-label="Salle: D105; TauxOccupation: 0.767852572306" role="graphics-symbol" aria-roledescription="bar" d="M586.7816091954022,507.85769132326595h10.344827586206897v92.14230867673405h-10.344827586206897Z" fill="#4c78a8"/><path aria-label="Salle: J105; TauxOccupation: 0.409521371897" role="graphics-symbol" aria-roledescription="bar" d="M736.2068965517241,550.8574353724085h10.344827586206897v49.14256462759147h-10.344827586206897Z" fill="#4c78a8"/><path aria-label="Salle: J101; TauxOccupation: 0.716662400819" role="graphics-symbol" aria-roledescription="bar" d="M713.2183908045977,514.0005119017148h10.344827586206897v85.99948809828516h-10.344827586206897Z" fill="#4c78a8"/><path aria-label="Salle: A108; TauxOccupation: 1.74046583056" role="graphics-symbol" aria-roledescription="bar" d="M58.04597701149423,391.1441003327361h10.344827586206897v208.85589966726388h-10.344827586206897Z" fill="#4c78a8"/><path aria-label="Salle: J002; TauxOccupation: 1.53570514461" role="graphics-symbol" aria-roledescription="bar" d="M690.2298850574712,415.71538264653185h10.344827586206897v184.28461735346815h-10.344827586206897Z" fill="#4c78a8"/><path aria-label="Salle: D102; TauxOccupation: 0.921423086767" role="graphics-symbol" aria-roledescription="bar" d="M575.2873563218391,489.4292295879191h10.344827586206897v110.57077041208089h-10.344827586206897Z" fill="#4c78a8"/><path aria-label="Salle: A210; TauxOccupation: 1.07499360123" role="graphics-symbol" aria-roledescription="bar" d="M138.50574712643675,471.00076785257227h10.344827586206897v128.99923214742773h-10.344827586206897Z" fill="#4c78a8"/><path aria-label="Salle: J102; TauxOccupation: 0.409521371897" role="graphics-symbol" aria-roledescription="bar" d="M724.7126436781608,550.8574353724085h10.344827586206897v49.14256462759147h-10.344827586206897Z" fill="#4c78a8"/><path aria-label="Salle: A102; TauxOccupation: 0.716662400819" role="graphics-symbol" aria-roledescription="bar" d="M23.563218390804575,514.0005119017148h10.344827586206897v85.99948809828516h-10.344827586206897Z" fill="#4c78a8"/><path aria-label="Salle: B209; TauxOccupation: 0.563091886358" role="graphics-symbol" aria-roledescription="bar" d="M345.40229885057465,532.4289736370616h10.344827586206897v67.57102636293837h-10.344827586206897Z" fill="#4c78a8"/><path aria-label="Salle: A201; TauxOccupation: 0.819042743793" role="graphics-symbol" aria-roledescription="bar" d="M69.54022988505744,501.71487074481695h10.344827586206897v98.28512925518305h-10.344827586206897Z" fill="#4c78a8"/><path aria-label="Salle: D101; TauxOccupation: 0.921423086767" role="graphics-symbol" aria-roledescription="bar" d="M563.7931034482758,489.4292295879191h10.344827586206897v110.57077041208089h-10.344827586206897Z" fill="#4c78a8"/><path aria-label="Salle: A212; TauxOccupation: 0.409521371897" role="graphics-symbol" aria-roledescription="bar" d="M149.99999999999997,550.8574353724085h10.344827586206897v49.14256462759147h-10.344827586206897Z" fill="#4c78a8"/><path aria-label="Salle: B123; TauxOccupation: 0.153570514461" role="graphics-symbol" aria-roledescription="bar" d="M241.9540229885057,581.5715382646532h10.344827586206897v18.428461735346787h-10.344827586206897Z" fill="#4c78a8"/><path aria-label="Salle: B1234; TauxOccupation: 0.153570514461" role="graphics-symbol" aria-roledescription="bar" d="M253.44827586206893,581.5715382646532h10.344827586206897v18.428461735346787h-10.344827586206897Z" fill="#4c78a8"/><path aria-label="Salle: D201; TauxOccupation: 1.53570514461" role="graphics-symbol" aria-roledescription="bar" d="M621.2643678160919,415.71538264653185h10.344827586206897v184.28461735346815h-10.344827586206897Z" fill="#4c78a8"/><path aria-label="Salle: D108; TauxOccupation: 0.153570514461" role="graphics-symbol" aria-roledescription="bar" d="M609.7701149425287,581.5715382646532h10.344827586206897v18.428461735346787h-10.344827586206897Z" fill="#4c78a8"/><path aria-label="Salle: M208; TauxOccupation: 0.614282057845" role="graphics-symbol" aria-roledescription="bar" d="M782.183908045977,526.2861530586127h10.344827586206897v73.71384694138726h-10.344827586206897Z" fill="#4c78a8"/><path aria-label="Salle: SPOR; TauxOccupation: 0.204760685948" role="graphics-symbol" aria-roledescription="bar" d="M989.0804597701149,575.4287176862042h10.344827586206897v24.57128231379579h-10.344827586206897Z" fill="#4c78a8"/><path aria-label="Salle: G002; TauxOccupation: 0.409521371897" role="graphics-symbol" aria-roledescription="bar" d="M667.2413793103448,550.8574353724085h10.344827586206897v49.14256462759147h-10.344827586206897Z" fill="#4c78a8"/><path aria-label="Salle: IUT1; TauxOccupation: 0.409521371897" role="graphics-symbol" aria-roledescription="bar" d="M678.735632183908,550.8574353724085h10.344827586206897v49.14256462759147h-10.344827586206897Z" fill="#4c78a8"/><path aria-label="Salle: D002; TauxOccupation: 0.460711543384" role="graphics-symbol" aria-roledescription="bar" d="M552.2988505747126,544.7146147939595h10.344827586206897v55.28538520604047h-10.344827586206897Z" fill="#4c78a8"/><path aria-label="Salle: B005; TauxOccupation: 0.204760685948" role="graphics-symbol" aria-roledescription="bar" d="M172.9885057471264,575.4287176862042h10.344827586206897v24.57128231379579h-10.344827586206897Z" fill="#4c78a8"/></g></g><path class="foreground" aria-hidden="true" d="" display="none"/></g></g></g></svg>